<?xml version="1.0" encoding="UTF-8"?>
<svg id="Capa_1" data-name="Capa 1" xmlns="http://www.w3.org/2000/svg" viewBox="0 0 898.16 400.21">
  <defs>
    <style>
      .cls-1 {
        fill: #1d1d1b;
        stroke-width: 0px;
      }
    </style>
  </defs>
  <path class="cls-1" d="m0,399.34V0h53.42c36.19,0,64.95,9.83,86.3,29.48,21.35,19.66,32.02,46.71,32.02,81.15s-9.86,62.96-29.58,83.19c-19.72,20.24-46.72,30.36-80.99,30.36h-10.63v175.15H0Zm50.54-223.02h8.9c41.17,0,61.75-22.87,61.75-68.6,0-41.07-23.55-61.01-70.65-59.85v128.44Z"/>
  <path class="cls-1" d="m568.98,399.34V0h50.54v399.34h-50.54Z"/>
  <path class="cls-1" d="m686.73,399.34V0h139.86v47.87h-89.32v119.4h81.85v47.87h-81.85v136.33h94.2v47.87h-144.75Z"/>
  <path class="cls-1" d="m474.21,0v243.28c0,58.29-46.49,105.55-103.84,105.55s-103.84-47.26-103.84-105.55V0h-50.55v243.31h0c.02,86.66,69.13,156.9,154.39,156.9s154.37-70.24,154.39-156.9h0V0h-50.55Z"/>
  <ellipse class="cls-1" cx="874.61" cy="191.2" rx="23.55" ry="23.94"/>
</svg>